<svg xmlns="http://www.w3.org/2000/svg" width="95.584" height="102.412" viewBox="0 0 95.584 102.412">
  <g id="Outline" transform="translate(-32 -16)">
    <path id="Path_51" data-name="Path 51" d="M123.632,53.551a37.551,37.551,0,1,0-75.1,0c0,.049,0,.1.006.148l.071.816a13.656,13.656,0,0,0,2.434,26.095,57.7,57.7,0,0,0,11.607,26.414,29.8,29.8,0,0,0,46.866,0,57.7,57.7,0,0,0,11.607-26.414,13.657,13.657,0,0,0,2.434-26.095l.071-.815c0-.049.006-.1.006-.148ZM43.41,67.206a10.228,10.228,0,0,1,5.512-9.082L50.5,76.285q.03.347.067.692a10.183,10.183,0,0,1-7.157-9.771Zm74.851,8.783a54.315,54.315,0,0,1-11.431,28.924,26.388,26.388,0,0,1-41.5,0A54.315,54.315,0,0,1,53.9,75.989L51.944,53.478a34.137,34.137,0,0,1,68.274,0Zm7.492-16.025A10.247,10.247,0,0,1,121.6,76.978c.023-.231.046-.461.067-.692l1.579-18.161A10.275,10.275,0,0,1,125.753,59.963Z" transform="translate(-6.289)" fill="#fff"/>
    <path id="Path_52" data-name="Path 52" d="M423.362,391.362V376h-3.414v13.655H408v3.414h13.655A1.707,1.707,0,0,0,423.362,391.362Z" transform="translate(-295.778 -283.191)" fill="#fff"/>
    <path id="Path_53" data-name="Path 53" d="M32,391.362a1.707,1.707,0,0,0,1.707,1.707H47.362v-3.414H35.414V376H32Z" transform="translate(0 -283.191)" fill="#fff"/>
    <path id="Path_54" data-name="Path 54" d="M32,57.707V73.069h3.414V59.414H47.362V56H33.707A1.707,1.707,0,0,0,32,57.707Z" transform="translate(0 -31.466)" fill="#fff"/>
    <path id="Path_55" data-name="Path 55" d="M423.362,57.707A1.707,1.707,0,0,0,421.655,56H408v3.414h11.948V73.069h3.414Z" transform="translate(-295.778 -31.466)" fill="#fff"/>
    <path id="Path_56" data-name="Path 56" d="M142.827,224a6.827,6.827,0,1,0,6.827,6.827A6.827,6.827,0,0,0,142.827,224Zm0,10.241a3.414,3.414,0,1,1,3.414-3.414A3.414,3.414,0,0,1,142.827,234.241Z" transform="translate(-81.811 -163.622)" fill="#fff"/>
    <path id="Path_57" data-name="Path 57" d="M318.827,224a6.827,6.827,0,1,0,6.827,6.827A6.827,6.827,0,0,0,318.827,224Zm0,10.241a3.414,3.414,0,1,1,3.414-3.414A3.414,3.414,0,0,1,318.827,234.241Z" transform="translate(-220.26 -163.622)" fill="#fff"/>
    <path id="Path_58" data-name="Path 58" d="M248,240h3.414v22.189H248Z" transform="translate(-169.915 -176.208)" fill="#fff"/>
    <path id="Path_59" data-name="Path 59" d="M215.1,368.155l-.67,3.348a45,45,0,0,0,17.738,0l-.67-3.348A41.6,41.6,0,0,1,215.1,368.155Z" transform="translate(-143.508 -277.02)" fill="#fff"/>
    <path id="Path_60" data-name="Path 60" d="M298.668,187.849l2.275,2.545a10.664,10.664,0,0,1,14.769-.021l2.323-2.5A13.871,13.871,0,0,0,308.213,184,14.767,14.767,0,0,0,298.668,187.849Z" transform="translate(-209.772 -132.157)" fill="#fff"/>
    <path id="Path_61" data-name="Path 61" d="M122.556,187.87l2.323,2.5a10.665,10.665,0,0,1,14.769.021l2.275-2.545A14.767,14.767,0,0,0,132.38,184,13.878,13.878,0,0,0,122.556,187.87Z" transform="translate(-71.235 -132.156)" fill="#fff"/>
  </g>
</svg>
